General                          : ChattChitto RG - Movies [R2L]
==========
Complete name                    : The Green Hornet 2011 720p BRRip H264 [ChattChitto RG]
Format profile                   : Base Media
Codec ID                         : isom
File size                        : 2.29 GiB
Duration                         : 1h 58mn
Overall bit rate                 : 2 763 Kbps
Encoded date                     : UTC 2011-04-02 16:59:07

Video
==========
ID                               : 1
Format                           : AVC
Format/Info                      : Advanced Video Codec
Format profile                   : High@L4.1
Format settings, CABAC           : Yes
Format settings, ReFrames        : 4 frames
Codec ID                         : avc1
Codec ID/Info                    : Advanced Video Coding
Duration                         : 1h 58mn
Bit rate mode                    : Variable
Bit rate                         : 2 400 Kbps
Maximum bit rate                 : 17.8 Mbps
Width                            : 1 280 pixels
Height                           : 528 pixels
Display aspect ratio             : 2.40:1
Frame rate mode                  : Constant
Frame rate                       : 23.976 fps
Color space                      : YUV
Chroma subsampling               : 4:2:0
Bit depth                        : 8 bits
Scan type                        : Progressive
Bits/(Pixel*Frame)               : 0.148
Stream size                      : 1.99 GiB (87%)
Writing library                  : x264 core 114 r1913 5fd3dce
Encoded date                     : UTC 2011-04-02 02:42:58

Audio
==========
ID                               : 2
Format                           : AAC
Format/Info                      : Advanced Audio Codec
Format profile                   : LC
Codec ID                         : 40
Duration                         : 1h 58mn
Bit rate mode                    : Variable
Bit rate                         : 352.8 Kbps
Maximum bit rate                 : 457 Kbps
Channel(s)                       : 6 channels
Channel positions                : Front: L C R, Side: L R, LFE
Sampling rate                    : 48.0 KHz
Compression mode                 : Lossy
Stream size                      : 305 MiB (13%)
Encoded date                     : UTC 2011-04-02 16:59:37

Subtitles                        : English


----------------------------------------------------
IMDB Link: http://www.imdb.com/title/tt0990407/
----------------------------------------------------



Screen Shots:
==============    
http://chattchitto.net/chattchittorg/movies/brrip/2011/green_hornet/1.png 
http://chattchitto.net/chattchittorg/movies/brrip/2011/green_hornet/2.png 
http://chattchitto.net/chattchittorg/movies/brrip/2011/green_hornet/3.png 
http://chattchitto.net/chattchittorg/movies/brrip/2011/green_hornet/4.png 
http://chattchitto.net/chattchittorg/movies/brrip/2011/green_hornet/5.png 
http://chattchitto.net/chattchittorg/movies/brrip/2011/green_hornet/6.png 
http://chattchitto.net/chattchittorg/movies/brrip/2011/green_hornet/7.png



ScreenShots Comparison:
=========================  
http://screenshotcomparison.com/comparison/40666



Plot:
======
Following the death of his father, Britt Reid, heir to his father's large company, teams up with his late dad's assistant Kato to become a masked crime fighting team.



Release Info:
==============
original name .... : The Green Hornet 2011 720p BRRip H264 [ChattChitto RG]
ripper.............: TheGreenHornet
encoder............: Recalled2Life (R2L)
video codec........: H264/.MP4
video bitrate......: 2400 Kbps
audio codec........: AAC-LC
aspect ratio.......: 2.40:1
resolution.........: 1280 x 528
genre..............: Action | Comedy | Crime
runtime............: 1h 58mn
language...........: English
rating.............: PG-13
subtitles..........: English
sample.............: Yes
2ch Audio..........: 2ch Audio for XBox Viewers
Compatibility .....: XBox | PS3 | WD Live



Source:
========
The.Green.Hornet.2011.720p.BluRay.x264-TheGreenHornet  THANKS!



Notes:
=======
ChattChitto RG Encourages Burning this Film with ConvertXtoDVD and Playing with VLC media player.
XBox 360 | PS3 | WD Live - Compatible 
Enhanced for your viewing pleasure ;)